<?xml version="1.0" encoding="UTF-8"?> <svg xmlns="http://www.w3.org/2000/svg" width="650" height="550" viewBox="0 0 650 550" fill="none"><path d="M318 524C457.728 524 571 516.837 571 508C571 499.163 457.728 492 318 492C178.272 492 65 499.163 65 508C65 516.837 178.272 524 318 524Z" fill="#262F63"></path><g opacity="0.4"><path opacity="0.4" d="M560.743 418.507C572.752 418.507 582.486 408.768 582.486 396.753C582.486 384.739 572.752 375 560.743 375C548.735 375 539 384.739 539 396.753C539 408.768 548.735 418.507 560.743 418.507Z" fill="#5982BE"></path><path d="M568.308 398.685C567.866 397.852 567.261 397.146 566.539 396.62C565.836 396.107 565.072 395.71 564.271 395.44C563.829 395.285 563.294 395.125 562.683 394.94C562.193 394.785 561.658 394.64 560.831 394.44C559.974 394.235 559.133 393.955 558.315 393.6C557.915 393.416 557.562 393.124 557.285 392.75C557.058 392.416 556.946 392 556.971 391.58C556.971 391.515 556.971 391.455 556.971 391.39C556.988 391.036 557.097 390.695 557.285 390.41C557.617 389.954 558.052 389.608 558.545 389.41C559.356 389.1 560.21 388.961 561.065 389C561.728 389 562.388 389.098 563.028 389.29C563.453 389.426 563.852 389.646 564.209 389.94C564.435 390.124 564.629 390.355 564.779 390.62V390.62C565.291 391.516 566.469 391.769 567.303 391.162L567.39 391.099C568.144 390.55 568.365 389.522 567.902 388.713L567.755 388.455C567.367 387.769 566.867 387.172 566.283 386.695C565.593 386.128 564.821 385.703 564.001 385.44C563.682 385.338 563.359 385.255 563.033 385.19V382.769C563.033 381.792 562.241 381 561.264 381V381C560.287 381 559.495 381.792 559.495 382.769V385.105C558.787 385.206 558.089 385.387 557.413 385.645C556.308 386.075 555.328 386.837 554.579 387.85L554.53 387.915C553.849 388.893 553.462 390.091 553.424 391.335C553.351 392.705 553.713 394.06 554.446 395.155L554.503 395.24C555.181 396.176 556.061 396.898 557.059 397.335C558.048 397.758 559.066 398.092 560.101 398.335C560.857 398.525 561.339 398.655 561.773 398.795H561.821C562.383 398.955 562.856 399.1 563.267 399.24C563.746 399.4 564.203 399.636 564.625 399.94C564.876 400.129 565.087 400.378 565.244 400.67C565.403 401.029 565.48 401.428 565.465 401.83C565.465 401.86 565.465 401.89 565.465 401.92C565.48 402.405 565.357 402.884 565.115 403.285C564.764 403.839 564.274 404.262 563.709 404.5C562.851 404.872 561.935 405.042 561.016 405H560.906C559.91 405.034 558.921 404.798 558.023 404.31C557.579 404.039 557.198 403.651 556.913 403.18V403.18C556.376 402.304 555.196 402.092 554.387 402.726L554.285 402.807C553.552 403.381 553.367 404.414 553.854 405.208L554.008 405.46C554.623 406.468 555.444 407.295 556.4 407.87L556.449 407.895C557.409 408.421 558.438 408.767 559.495 408.92V411.231C559.495 412.208 560.287 413 561.264 413V413C562.241 413 563.033 412.208 563.033 411.231V408.83C563.705 408.697 564.362 408.486 564.996 408.2C566.189 407.686 567.224 406.791 567.976 405.625C568.576 404.618 568.926 403.448 568.989 402.236C569.053 401.024 568.828 399.815 568.339 398.735L568.308 398.685Z" fill="#EBF2FC"></path><path opacity="0.4" d="M157.563 108.161C178.308 108.161 195.126 91.3356 195.126 70.5805C195.126 49.8254 178.308 33 157.563 33C136.817 33 120 49.8254 120 70.5805C120 91.3356 136.817 108.161 157.563 108.161Z" fill="#5982BE"></path><path d="M169.875 73.7381C169.158 72.3848 168.174 71.2365 167.001 70.3825C165.859 69.5494 164.618 68.9038 163.315 68.465C162.597 68.2131 161.727 67.9531 160.736 67.6525C159.938 67.4006 159.069 67.165 157.725 66.84C156.333 66.5075 154.965 66.0511 153.637 65.475C152.988 65.1754 152.413 64.7012 151.962 64.0937C151.594 63.551 151.413 62.8753 151.452 62.1925C151.452 62.0869 151.452 61.9894 151.452 61.8837C151.481 61.3078 151.658 60.754 151.962 60.2913C152.502 59.5497 153.21 58.988 154.01 58.6663C155.328 58.1632 156.716 57.9374 158.106 58C159.183 58.0001 160.255 58.1586 161.296 58.4713C161.986 58.6923 162.635 59.05 163.214 59.5275C163.582 59.8265 163.897 60.2014 164.141 60.6325V60.6325C164.973 62.0891 166.886 62.4998 168.243 61.5129L168.384 61.4102C169.609 60.5189 169.968 58.8487 169.216 57.5331L168.977 57.1144C168.346 55.9991 167.534 55.0287 166.584 54.2544C165.464 53.3329 164.209 52.6425 162.877 52.215C162.359 52.0494 161.834 51.9138 161.303 51.8087V47.8741C161.303 46.2868 160.016 45 158.429 45V45C156.842 45 155.555 46.2868 155.555 47.8741V51.6706C154.404 51.835 153.27 52.129 152.171 52.5481C150.376 53.2465 148.784 54.4853 147.565 56.1313L147.486 56.2369C146.38 57.8261 145.75 59.773 145.69 61.7944C145.57 64.0213 146.159 66.2231 147.35 68.0019L147.443 68.14C148.544 69.6616 149.975 70.8345 151.596 71.5444C153.204 72.2319 154.856 72.7753 156.539 73.1694C157.768 73.4781 158.551 73.6894 159.255 73.9169H159.334C160.247 74.1769 161.016 74.4125 161.684 74.64C162.463 74.8998 163.206 75.2827 163.89 75.7775C164.298 76.0842 164.642 76.4893 164.896 76.9637C165.156 77.5472 165.279 78.1961 165.255 78.8487C165.255 78.8975 165.255 78.9462 165.255 78.995C165.28 79.7839 165.081 80.561 164.687 81.2131C164.116 82.1134 163.321 82.8008 162.403 83.1875C161.008 83.7914 159.519 84.0679 158.027 84H157.847C156.229 84.0556 154.622 83.671 153.162 82.8788C152.44 82.4378 151.822 81.8082 151.359 81.0425V81.0425C150.486 79.6189 148.568 79.2742 147.254 80.305L147.088 80.4356C145.898 81.3697 145.596 83.0475 146.387 84.3375L146.638 84.7475C147.638 86.3858 148.971 87.7288 150.525 88.6637L150.604 88.7044C152.164 89.5588 153.836 90.1213 155.555 90.37V94.1259C155.555 95.7132 156.842 97 158.429 97V97C160.016 97 161.303 95.7132 161.303 94.1259V90.2238C162.395 90.0077 163.464 89.6646 164.493 89.2C166.432 88.3644 168.114 86.9109 169.336 85.0156C170.311 83.3793 170.879 81.4776 170.983 79.5085C171.086 77.5393 170.721 75.5748 169.925 73.8194L169.875 73.7381Z" fill="#EBF2FC"></path><path opacity="0.4" d="M63.3431 255.713C78.9966 255.713 91.6862 243.017 91.6862 227.356C91.6862 211.696 78.9966 199 63.3431 199C47.6896 199 35 211.696 35 227.356C35 243.017 47.6896 255.713 63.3431 255.713Z" fill="#5982BE"></path><path d="M73.1347 229.106C72.5829 228.065 71.8264 227.182 70.9239 226.525C70.0452 225.884 69.0906 225.388 68.0885 225.05C67.5358 224.856 66.867 224.656 66.1043 224.425C65.4908 224.231 64.822 224.05 63.7884 223.8C62.7173 223.544 61.6657 223.193 60.6435 222.75C60.1443 222.52 59.7022 222.155 59.3557 221.688C59.0723 221.27 58.9328 220.75 58.9633 220.225C58.9633 220.144 58.9633 220.069 58.9633 219.987C58.9851 219.544 59.1215 219.118 59.3557 218.763C59.7709 218.192 60.3154 217.76 60.9309 217.513C61.9446 217.126 63.0124 216.952 64.0814 217C64.9098 217 65.7347 217.122 66.5354 217.363C67.0659 217.533 67.5656 217.808 68.0111 218.175C68.2941 218.405 68.536 218.693 68.7241 219.025V219.025C69.3641 220.145 70.8356 220.461 71.8791 219.702L71.9876 219.623C72.93 218.938 73.2058 217.653 72.6278 216.641L72.4438 216.319C71.9584 215.461 71.334 214.714 70.6033 214.119C69.7418 213.41 68.7763 212.879 67.7514 212.55C67.3528 212.423 66.9488 212.318 66.5409 212.237V209.211C66.5409 207.99 65.5511 207 64.3301 207V207C63.1091 207 62.1193 207.99 62.1193 209.211V212.131C61.2338 212.258 60.3617 212.484 59.516 212.806C58.1353 213.343 56.9104 214.296 55.9732 215.563L55.9124 215.644C55.0613 216.866 54.5773 218.364 54.5306 219.919C54.4384 221.632 54.8913 223.325 55.8074 224.694L55.8792 224.8C56.7261 225.97 57.8267 226.873 59.0739 227.419C60.3104 227.948 61.5819 228.366 62.8765 228.669C63.8216 228.906 64.4241 229.069 64.9657 229.244H65.0265C65.7284 229.444 66.3198 229.625 66.8339 229.8C67.4331 230 68.0043 230.294 68.5307 230.675C68.8449 230.911 69.1092 231.223 69.3045 231.588C69.5043 232.036 69.5994 232.535 69.5808 233.038C69.5808 233.075 69.5808 233.113 69.5808 233.15C69.5997 233.757 69.4467 234.355 69.1442 234.856C68.7048 235.549 68.0929 236.078 67.3866 236.375C66.3137 236.84 65.1685 237.052 64.0206 237H63.8824C62.6375 237.043 61.4016 236.747 60.2788 236.138C59.7235 235.798 59.2478 235.314 58.8915 234.725V234.725C58.2203 233.63 56.7445 233.365 55.7341 234.158L55.6062 234.258C54.6906 234.977 54.4587 236.267 55.0669 237.26L55.2602 237.575C56.0294 238.835 57.0548 239.868 58.2503 240.587L58.3111 240.619C59.5108 241.276 60.7969 241.709 62.1193 241.9V244.789C62.1193 246.01 63.1091 247 64.3301 247V247C65.5511 247 66.5409 246.01 66.5409 244.789V241.788C67.3807 241.621 68.2031 241.357 68.9949 241C70.4859 240.357 71.78 239.239 72.7202 237.781C73.4697 236.523 73.907 235.06 73.9867 233.545C74.0665 232.03 73.7856 230.519 73.1734 229.169L73.1347 229.106Z" fill="#EBF2FC"></path><path opacity="0.4" d="M311.883 210.782C320.656 210.782 327.767 203.667 327.767 194.891C327.767 186.115 320.656 179 311.883 179C303.111 179 296 186.115 296 194.891C296 203.667 303.111 210.782 311.883 210.782Z" fill="#5982BE"></path><path d="M317.524 196.158C317.221 195.586 316.805 195.1 316.308 194.739C315.825 194.386 315.3 194.113 314.749 193.928C314.445 193.821 314.077 193.711 313.657 193.584C313.32 193.477 312.952 193.378 312.384 193.24C311.795 193.099 311.216 192.906 310.654 192.663C310.379 192.536 310.136 192.335 309.946 192.078C309.79 191.848 309.713 191.563 309.73 191.274C309.73 191.229 309.73 191.188 309.73 191.143C309.742 190.899 309.817 190.665 309.946 190.469C310.174 190.156 310.473 189.918 310.812 189.782C311.37 189.569 311.957 189.474 312.545 189.5C313 189.5 313.454 189.567 313.894 189.699C314.186 189.793 314.461 189.944 314.706 190.146C314.862 190.273 314.995 190.431 315.098 190.614V190.614C315.45 191.23 316.26 191.404 316.833 190.986L316.893 190.943C317.412 190.566 317.563 189.859 317.245 189.302L317.144 189.125C316.877 188.653 316.534 188.243 316.132 187.915C315.658 187.525 315.127 187.233 314.563 187.052C314.344 186.982 314.122 186.925 313.898 186.881V185.216C313.898 184.544 313.353 184 312.682 184V184C312.01 184 311.466 184.544 311.466 185.216V186.822C310.979 186.892 310.499 187.016 310.034 187.193C309.274 187.489 308.601 188.013 308.085 188.709L308.052 188.754C307.584 189.426 307.318 190.25 307.292 191.105C307.241 192.047 307.49 192.979 307.994 193.732L308.034 193.79C308.499 194.434 309.105 194.93 309.791 195.23C310.471 195.521 311.17 195.751 311.882 195.918C312.402 196.048 312.733 196.138 313.031 196.234H313.065C313.451 196.344 313.776 196.444 314.059 196.54C314.388 196.65 314.702 196.812 314.992 197.021C315.165 197.151 315.31 197.322 315.417 197.523C315.527 197.77 315.58 198.044 315.569 198.321C315.569 198.341 315.569 198.362 315.569 198.382C315.58 198.716 315.496 199.045 315.329 199.321C315.088 199.702 314.751 199.993 314.363 200.156C313.773 200.412 313.143 200.529 312.511 200.5H312.435C311.751 200.524 311.071 200.361 310.453 200.026C310.148 199.839 309.886 199.573 309.69 199.249V199.249C309.321 198.646 308.509 198.501 307.954 198.937L307.883 198.992C307.38 199.387 307.252 200.097 307.587 200.643L307.693 200.816C308.116 201.509 308.68 202.078 309.338 202.473L309.371 202.49C310.031 202.852 310.738 203.09 311.466 203.195V204.784C311.466 205.456 312.01 206 312.682 206V206C313.353 206 313.898 205.456 313.898 204.784V203.133C314.359 203.042 314.812 202.897 315.247 202.7C316.067 202.346 316.779 201.732 317.296 200.93C317.708 200.237 317.949 199.433 317.993 198.6C318.037 197.767 317.882 196.935 317.545 196.193L317.524 196.158Z" fill="#EBF2FC"></path><path opacity="0.4" d="M568.118 102.255C579.229 102.255 588.236 93.2434 588.236 82.1273C588.236 71.0113 579.229 62 568.118 62C557.007 62 548 71.0113 548 82.1273C548 93.2434 557.007 102.255 568.118 102.255Z" fill="#5982BE"></path><path d="M575.351 83.5797C574.937 82.7989 574.37 82.1365 573.693 81.6437C573.034 81.1631 572.318 80.7907 571.566 80.5375C571.152 80.3922 570.65 80.2422 570.078 80.0688C569.618 79.9234 569.117 79.7875 568.341 79.6C567.538 79.4082 566.749 79.1449 565.983 78.8125C565.608 78.6396 565.277 78.3661 565.017 78.0156C564.804 77.7025 564.7 77.3126 564.722 76.9187C564.722 76.8578 564.722 76.8016 564.722 76.7406C564.739 76.4084 564.841 76.0889 565.017 75.8219C565.328 75.3941 565.737 75.07 566.198 74.8844C566.958 74.5942 567.759 74.4639 568.561 74.5C569.182 74.5001 569.801 74.5915 570.402 74.7719C570.799 74.8994 571.174 75.1058 571.508 75.3813C571.721 75.5537 571.902 75.77 572.043 76.0188V76.0188C572.523 76.8591 573.627 77.096 574.409 76.5267L574.491 76.4674C575.198 75.9532 575.404 74.9896 574.971 74.2307L574.833 73.9891C574.469 73.3456 574 72.7858 573.452 72.3391C572.806 71.8074 572.082 71.4091 571.314 71.1625C571.015 71.0669 570.712 70.9887 570.406 70.9281V68.6581C570.406 67.7424 569.663 67 568.748 67V67C567.832 67 567.089 67.7424 567.089 68.6581V70.8484C566.425 70.9433 565.771 71.1129 565.137 71.3547C564.101 71.7576 563.183 72.4723 562.48 73.4219L562.434 73.4828C561.796 74.3997 561.433 75.5229 561.398 76.6891C561.329 77.9738 561.668 79.2441 562.356 80.2703L562.409 80.35C563.045 81.2278 563.87 81.9045 564.805 82.3141C565.733 82.7107 566.686 83.0242 567.657 83.2516C568.366 83.4297 568.818 83.5516 569.224 83.6828H569.27C569.796 83.8328 570.24 83.9687 570.625 84.1C571.075 84.2499 571.503 84.4708 571.898 84.7563C572.134 84.9332 572.332 85.1669 572.478 85.4406C572.628 85.7772 572.7 86.1516 572.686 86.5281C572.686 86.5562 572.686 86.5844 572.686 86.6125C572.7 87.0676 572.585 87.516 572.358 87.8922C572.029 88.4116 571.57 88.8082 571.04 89.0312C570.235 89.3797 569.376 89.5391 568.515 89.5H568.412C567.478 89.5321 566.551 89.3102 565.709 88.8531C565.293 88.5987 564.936 88.2355 564.669 87.7937V87.7937C564.165 86.9724 563.058 86.7736 562.301 87.3683L562.205 87.4436C561.518 87.9825 561.344 88.9505 561.8 89.6947L561.945 89.9312C562.522 90.8764 563.291 91.6513 564.188 92.1906L564.233 92.2141C565.133 92.707 566.098 93.0315 567.089 93.175V95.3419C567.089 96.2576 567.832 97 568.748 97V97C569.663 97 570.406 96.2576 570.406 95.3419V93.0906C571.036 92.966 571.652 92.768 572.246 92.5C573.364 92.0179 574.335 91.1793 575.04 90.0859C575.602 89.1419 575.93 88.0448 575.99 86.9087C576.05 85.7727 575.839 84.6393 575.38 83.6266L575.351 83.5797Z" fill="#EBF2FC"></path></g><path d="M299.282 504.365C299.282 504.365 284.562 510.57 251.472 513.18C233.358 514.592 209.732 514.914 180 512.529C95.9614 519.277 60.7182 504.365 60.7182 504.365C-4.46411 437.806 71.5819 295.198 98.7412 261.231C111.296 245.54 129.641 239.134 145.748 236.773C157.107 235.145 168.639 235.134 180 236.743C191.363 235.134 202.897 235.144 214.258 236.773C222.822 238.027 232.025 240.424 240.645 244.768C248.63 248.69 255.663 254.309 261.253 261.231C288.418 295.198 364.464 437.806 299.282 504.365Z" fill="url(#paint0_linear)"></path><path d="M244.731 152.684C244.731 152.684 237.986 120.404 182.184 148.464C126.382 176.524 232.093 170.169 232.093 170.169C232.093 170.169 245.418 162.108 244.731 152.684Z" fill="#E8A341"></path><path d="M135.518 203.435C135.518 203.435 98.1063 162.049 118.522 143.687C134.537 129.299 180.892 147.947 200.15 156.632C208.451 160.426 217.466 162.409 226.595 162.451C235.568 162.451 244.585 160.667 244.755 153.534C244.755 153.534 245.365 185.055 222.096 203.441C198.827 221.828 135.518 203.435 135.518 203.435Z" fill="url(#paint1_linear)"></path><path d="M178.592 210.394C178.592 210.394 206.595 200.892 215.194 182.049C215.194 182.049 214.849 200.205 201.436 207.398C188.023 214.592 178.592 210.394 178.592 210.394Z" fill="#E8A341"></path><path d="M222.635 203.165H135.958C131.515 203.165 127.913 206.676 127.913 211.008V212.215C127.913 216.547 131.515 220.058 135.958 220.058H222.635C227.078 220.058 230.68 216.547 230.68 212.215V211.008C230.68 206.676 227.078 203.165 222.635 203.165Z" fill="#262F63"></path><path d="M108.204 493.165C108.204 493.165 183.928 534.342 251.796 493.165C251.796 493.165 180.552 505.587 108.204 493.165Z" fill="#E8A341"></path><path d="M136.358 170.787C136.358 170.787 141.425 198.95 161.698 203.165C161.698 203.165 139.403 183.269 136.358 170.787Z" fill="#E8A341"></path><path d="M73.9742 374.913C73.9742 374.913 64.6577 430.571 103.982 445.301C103.982 445.301 71.9032 405.327 73.9742 374.913Z" fill="#E8A341"></path><path opacity="0.34" d="M173.666 384.767C201.267 384.767 223.642 362.392 223.642 334.791C223.642 307.19 201.267 284.815 173.666 284.815C146.065 284.815 123.69 307.19 123.69 334.791C123.69 362.392 146.065 384.767 173.666 384.767Z" fill="#0A0A0A"></path><path d="M222.639 220.058H135.955C131.513 220.058 127.913 223.524 127.913 227.801C127.913 232.077 131.513 235.543 135.955 235.543H222.639C227.08 235.543 230.68 232.077 230.68 227.801C230.68 223.524 227.08 220.058 222.639 220.058Z" fill="#262F63"></path><path d="M179.999 379.136C207.989 379.136 230.679 356.446 230.679 328.456C230.679 300.467 207.989 277.777 179.999 277.777C152.01 277.777 129.32 300.467 129.32 328.456C129.32 356.446 152.01 379.136 179.999 379.136Z" fill="#EBF2FC"></path><path d="M194.572 329.475C193.662 327.758 192.414 326.3 190.924 325.216C189.475 324.159 187.899 323.339 186.246 322.783C185.334 322.463 184.231 322.133 182.972 321.751C181.96 321.432 180.856 321.133 179.151 320.72C177.384 320.298 175.648 319.719 173.962 318.988C173.138 318.607 172.409 318.005 171.837 317.234C171.369 316.545 171.139 315.688 171.189 314.821C171.189 314.687 171.189 314.563 171.189 314.429C171.225 313.698 171.451 312.996 171.837 312.408C172.522 311.467 173.42 310.754 174.436 310.346C176.109 309.707 177.87 309.421 179.634 309.5C181.001 309.5 182.362 309.701 183.683 310.098C184.559 310.379 185.383 310.833 186.118 311.439C186.585 311.818 186.984 312.294 187.295 312.841V312.841C188.351 314.69 190.779 315.211 192.5 313.959L192.68 313.828C194.235 312.697 194.69 310.577 193.736 308.907L193.432 308.376C192.631 306.96 191.601 305.729 190.395 304.746C188.974 303.576 187.381 302.7 185.69 302.157C185.032 301.947 184.366 301.775 183.693 301.642V296.648C183.693 294.633 182.059 293 180.045 293V293C178.03 293 176.397 294.633 176.397 296.648V301.467C174.936 301.675 173.497 302.048 172.101 302.58C169.823 303.467 167.802 305.039 166.256 307.128L166.155 307.262C164.751 309.279 163.953 311.75 163.875 314.316C163.723 317.142 164.471 319.937 165.982 322.195L166.101 322.37C167.498 324.301 169.314 325.79 171.372 326.691C173.412 327.564 175.51 328.253 177.646 328.753C179.206 329.145 180.2 329.413 181.093 329.702H181.194C182.352 330.032 183.328 330.331 184.176 330.62C185.165 330.95 186.107 331.436 186.976 332.064C187.494 332.453 187.93 332.967 188.252 333.569C188.582 334.31 188.739 335.133 188.708 335.962C188.708 336.024 188.708 336.086 188.708 336.148C188.74 337.149 188.487 338.135 187.988 338.963C187.263 340.106 186.253 340.978 185.088 341.469C183.318 342.235 181.428 342.586 179.534 342.5H179.306C177.252 342.571 175.213 342.082 173.36 341.077C172.444 340.517 171.659 339.718 171.071 338.746V338.746C169.964 336.939 167.528 336.502 165.861 337.81L165.65 337.976C164.14 339.162 163.757 341.291 164.76 342.928L165.079 343.449C166.348 345.528 168.04 347.233 170.013 348.419L170.113 348.471C172.093 349.555 174.215 350.269 176.397 350.585V355.352C176.397 357.367 178.03 359 180.045 359V359C182.059 359 183.693 357.367 183.693 355.352V350.399C185.078 350.125 186.435 349.69 187.742 349.1C190.202 348.039 192.337 346.195 193.888 343.789C195.125 341.712 195.847 339.299 195.978 336.799C196.11 334.3 195.646 331.806 194.636 329.578L194.572 329.475Z" fill="#262F63"></path><path opacity="0.3" fill-rule="evenodd" clip-rule="evenodd" d="M296.282 498.365C296.282 498.365 281.562 504.57 248.472 507.18C245.771 507.391 242.948 507.577 240 507.734V492.146L247.77 492.146V473.152H261.584V327.24H240V295.295L273.57 277.95C305.475 331.278 351.436 442.046 296.282 498.365Z" fill="black"></path><rect x="282.584" y="324.65" width="265.059" height="148.502" fill="#73BFB7"></rect><rect opacity="0.3" x="283" y="325" width="265" height="15" fill="black"></rect><path d="M492.99 522.254L493.005 524.668" stroke="url(#paint2_linear)" stroke-width="0.77961"></path><path fill-rule="evenodd" clip-rule="evenodd" d="M324.89 327.24V336.737H320.574L320.574 463.654H324.89V473.152H320.574V473.152H299.853V473.152H295.535V463.654H299.853L299.853 336.737H295.535V327.24H299.853H320.574H324.89Z" fill="#262F63"></path><path fill-rule="evenodd" clip-rule="evenodd" d="M489.796 327.24V336.737H485.48L485.48 463.654H489.796V473.152H485.48V473.152H464.759V473.152H460.441V463.654H464.759L464.759 336.737H460.441V327.24H464.759H485.48H489.796Z" fill="#262F63"></path><path fill-rule="evenodd" clip-rule="evenodd" d="M371.513 327.24V336.737H367.197L367.197 463.655H371.513V473.152H342.158V463.655H346.476L346.476 336.737H342.158V327.24H346.476H367.197H371.513Z" fill="#262F63"></path><path fill-rule="evenodd" clip-rule="evenodd" d="M536.419 327.24V336.737H532.103L532.103 463.655H536.419V473.152H507.064V463.655H511.382L511.382 336.737H507.064V327.24H511.382H532.103H536.419Z" fill="#262F63"></path><path d="M261 295.295L416.409 215L570.955 295.295V327.24H261V295.295Z" fill="url(#paint3_linear)"></path><rect x="268.771" y="473.152" width="290.96" height="18.9944" fill="url(#paint4_linear)"></rect><rect x="261" y="492.146" width="306.501" height="18.9944" fill="url(#paint5_linear)"></rect><path d="M417.471 284.965C430.986 284.965 441.942 274.004 441.942 260.483C441.942 246.961 430.986 236 417.471 236C403.956 236 393 246.961 393 260.483C393 274.004 403.956 284.965 417.471 284.965Z" fill="url(#paint6_linear)"></path><path d="M426.221 261.896C425.725 260.959 425.044 260.164 424.232 259.573C423.441 258.996 422.582 258.549 421.68 258.245C421.182 258.071 420.58 257.891 419.894 257.683C419.342 257.508 418.74 257.345 417.81 257.12C416.846 256.89 415.899 256.574 414.979 256.175C414.53 255.968 414.132 255.639 413.82 255.219C413.565 254.843 413.44 254.375 413.467 253.903C413.467 253.829 413.467 253.762 413.467 253.689C413.487 253.29 413.609 252.907 413.82 252.586C414.194 252.073 414.684 251.684 415.238 251.461C416.15 251.113 417.111 250.957 418.073 251C418.819 251 419.561 251.11 420.282 251.326C420.759 251.479 421.209 251.727 421.61 252.058C421.865 252.264 422.082 252.524 422.252 252.823V252.823C422.828 253.831 424.152 254.115 425.091 253.432L425.189 253.361C426.037 252.744 426.285 251.588 425.765 250.677L425.599 250.387C425.163 249.615 424.601 248.943 423.943 248.407C423.168 247.769 422.299 247.291 421.376 246.995C421.018 246.88 420.654 246.786 420.287 246.714V243.99C420.287 242.891 419.396 242 418.297 242V242C417.198 242 416.307 242.891 416.307 243.99V246.618C415.51 246.732 414.726 246.935 413.964 247.226C412.722 247.709 411.619 248.567 410.776 249.706L410.721 249.779C409.955 250.88 409.52 252.227 409.478 253.627C409.395 255.169 409.802 256.693 410.627 257.924L410.691 258.02C411.453 259.073 412.444 259.885 413.566 260.377C414.679 260.853 415.824 261.229 416.989 261.502C417.839 261.716 418.382 261.862 418.869 262.019H418.924C419.556 262.199 420.088 262.363 420.55 262.52C421.09 262.7 421.604 262.965 422.078 263.308C422.36 263.52 422.598 263.8 422.774 264.129C422.954 264.533 423.039 264.982 423.023 265.434C423.023 265.468 423.023 265.501 423.023 265.535C423.04 266.081 422.902 266.619 422.63 267.071C422.234 267.694 421.684 268.17 421.048 268.438C420.082 268.856 419.052 269.047 418.019 269H417.894C416.774 269.038 415.661 268.772 414.651 268.224C414.151 267.918 413.723 267.483 413.402 266.952V266.952C412.798 265.967 411.47 265.728 410.561 266.442L410.446 266.532C409.622 267.179 409.413 268.341 409.96 269.234L410.134 269.517C410.826 270.652 411.749 271.582 412.825 272.229L412.88 272.257C413.96 272.848 415.117 273.238 416.307 273.41V276.01C416.307 277.109 417.198 278 418.297 278V278C419.396 278 420.287 277.109 420.287 276.01V273.309C421.043 273.159 421.783 272.922 422.495 272.6C423.837 272.022 425.002 271.015 425.848 269.703C426.523 268.57 426.916 267.254 426.988 265.89C427.06 264.527 426.807 263.167 426.256 261.952L426.221 261.896Z" fill="#262F63"></path><rect x="268.771" y="297.022" width="294.414" height="22.448" rx="1.72677" fill="#262F63"></rect><path d="M387.917 425.234C387.917 410.214 400.093 398.037 415.114 398.037V398.037C430.134 398.037 442.31 410.214 442.31 425.234V473.152H387.917V425.234Z" fill="#262F63"></path><path fill-rule="evenodd" clip-rule="evenodd" d="M440.115 169.282L386.292 192.869L389.037 199.133L389.038 199.132C389.038 199.133 389.039 199.133 389.039 199.134C390.218 201.825 403.223 198.726 418.085 192.213C432.948 185.699 444.041 178.238 442.862 175.547C442.855 175.532 442.848 175.516 442.84 175.501L440.115 169.282Z" fill="#E8A341"></path><ellipse cx="413.207" cy="181.076" rx="29.3821" ry="5.31917" transform="rotate(-23.6645 413.207 181.076)" fill="#F3BF75"></ellipse><ellipse cx="413.206" cy="181.075" rx="25.3294" ry="4.55929" transform="rotate(-23.6645 413.206 181.075)" fill="#E8A341"></ellipse><ellipse cx="413.515" cy="181.771" rx="24.3162" ry="3.79941" transform="rotate(-23.6645 413.515 181.771)" fill="#F3BF75"></ellipse><path fill-rule="evenodd" clip-rule="evenodd" d="M401.638 182.026L352.746 149.426L348.952 155.117L348.952 155.117C348.951 155.117 348.951 155.117 348.951 155.118C347.321 157.562 356.945 166.841 370.446 175.843C383.948 184.845 396.214 190.162 397.844 187.717C397.846 187.714 397.849 187.71 397.851 187.706L401.638 182.026Z" fill="#E8A341"></path><ellipse cx="377.194" cy="165.727" rx="29.3821" ry="5.31917" transform="rotate(33.6935 377.194 165.727)" fill="#F3BF75"></ellipse><ellipse cx="377.196" cy="165.727" rx="25.3294" ry="4.55929" transform="rotate(33.6935 377.196 165.727)" fill="#E8A341"></ellipse><ellipse cx="376.774" cy="166.36" rx="24.3162" ry="3.79941" transform="rotate(33.6935 376.774 166.36)" fill="#F3BF75"></ellipse><line x1="385.5" y1="128" x2="385.5" y2="258" stroke="white" stroke-width="3" stroke-dasharray="18.07 18.07"></line><path fill-rule="evenodd" clip-rule="evenodd" d="M372.734 118.187C372.576 118.084 372.435 117.963 372.313 117.824C369.562 114.699 377.055 103.606 389.048 93.0475C400.987 82.5369 412.885 76.5174 415.708 79.5446L415.784 79.4756L422.284 86.8301L378.833 125.019L372.684 118.232L372.734 118.187Z" fill="#F3BF75"></path><ellipse cx="400.292" cy="105.727" rx="28.9332" ry="7.53836" transform="rotate(-41.3598 400.292 105.727)" fill="#E8A341"></ellipse><line x1="438.5" y1="81" x2="438.5" y2="178" stroke="white" stroke-width="3" stroke-dasharray="18.07 18.07"></line><line x1="355.5" y1="27" x2="355.5" y2="161" stroke="white" stroke-width="3" stroke-dasharray="18.07 18.07"></line><path d="M556.617 513.633H506C506 500.391 517.331 489.656 531.309 489.656C545.286 489.656 556.617 500.391 556.617 513.633Z" fill="#262F63"></path><path d="M255.625 517.633H306.242C306.242 504.391 294.911 493.656 280.934 493.656C266.956 493.656 255.625 504.391 255.625 517.633Z" fill="#262F63"></path><path d="M599.242 513.633H524.648C524.648 494.506 541.347 479 561.945 479C582.544 479 599.242 494.506 599.242 513.633Z" fill="#262F63"></path><path d="M213 517.633H287.594C287.594 498.506 270.895 483 250.297 483C229.698 483 213 498.506 213 517.633Z" fill="#262F63"></path><path opacity="0.3" d="M524.608 318.217C554.215 318.217 578.217 294.215 578.217 264.608C578.217 235.001 554.215 211 524.608 211C495.001 211 471 235.001 471 264.608C471 294.215 495.001 318.217 524.608 318.217Z" fill="black"></path><path d="M528.608 311.217C558.215 311.217 582.217 287.215 582.217 257.608C582.217 228.001 558.215 204 528.608 204C499.001 204 475 228.001 475 257.608C475 287.215 499.001 311.217 528.608 311.217Z" fill="white"></path><path d="M35.6106 33.9478C35.3623 33.4793 35.0219 33.0819 34.6158 32.7863C34.2203 32.4979 33.7908 32.2744 33.3398 32.1225C33.0911 32.0353 32.7902 31.9453 32.4469 31.8413C32.1709 31.7541 31.8699 31.6725 31.4048 31.56C30.9228 31.4449 30.4496 31.2869 29.9896 31.0875C29.7649 30.9838 29.566 30.8197 29.4101 30.6094C29.2825 30.4215 29.2198 30.1876 29.2335 29.9513C29.2335 29.9147 29.2335 29.8809 29.2335 29.8444C29.2433 29.645 29.3047 29.4533 29.4101 29.2931C29.5969 29.0364 29.8419 28.842 30.1189 28.7306C30.5751 28.5565 31.0556 28.4783 31.5366 28.5C31.9094 28.5 32.2806 28.5549 32.6409 28.6631C32.8797 28.7397 33.1045 28.8635 33.305 29.0288C33.4323 29.1322 33.5412 29.262 33.6259 29.4113V29.4113C33.9138 29.9155 34.576 30.0576 35.0456 29.716L35.0944 29.6805C35.5185 29.3719 35.6426 28.7938 35.3825 28.3384L35.2997 28.1934C35.0813 27.8074 34.8003 27.4715 34.4715 27.2034C34.0838 26.8845 33.6493 26.6455 33.1881 26.4975C33.0088 26.4402 32.827 26.3932 32.6434 26.3569V24.9949C32.6434 24.4454 32.198 24 31.6485 24V24C31.0991 24 30.6537 24.4454 30.6537 24.9949V26.3091C30.2552 26.366 29.8628 26.4677 29.4822 26.6128C28.8609 26.8545 28.3097 27.2834 27.8879 27.8531L27.8606 27.8897C27.4776 28.4398 27.2598 29.1137 27.2388 29.8134C27.1973 30.5843 27.4011 31.3465 27.8133 31.9622L27.8456 32.01C28.2267 32.5367 28.722 32.9427 29.2832 33.1884C29.8397 33.4264 30.4118 33.6145 30.9944 33.7509C31.4197 33.8578 31.6908 33.9309 31.9346 34.0097H31.9619C32.2778 34.0997 32.5439 34.1813 32.7752 34.26C33.0449 34.3499 33.302 34.4825 33.5388 34.6538C33.6802 34.7599 33.7991 34.9002 33.887 35.0644C33.9769 35.2663 34.0197 35.4909 34.0114 35.7169C34.0114 35.7338 34.0114 35.7506 34.0114 35.7675C34.0199 36.0406 33.951 36.3096 33.8149 36.5353C33.6172 36.847 33.3418 37.0849 33.024 37.2188C32.5412 37.4278 32.0258 37.5235 31.5093 37.5H31.4471C30.8869 37.5192 30.3307 37.3861 29.8254 37.1119C29.5756 36.9592 29.3615 36.7413 29.2012 36.4762V36.4762C28.8991 35.9835 28.235 35.8641 27.7804 36.221L27.7228 36.2662C27.3108 36.5895 27.2064 37.1703 27.4801 37.6168L27.5671 37.7587C27.9132 38.3259 28.3747 38.7908 28.9126 39.1144L28.94 39.1284C29.4799 39.4242 30.0586 39.6189 30.6537 39.705V41.0051C30.6537 41.5546 31.0991 42 31.6485 42V42C32.198 42 32.6434 41.5546 32.6434 41.0051V39.6544C33.0213 39.5796 33.3914 39.4608 33.7477 39.3C34.4187 39.0108 35.001 38.5076 35.4241 37.8516C35.7614 37.2852 35.9582 36.6269 35.994 35.9452C36.0299 35.2636 35.9035 34.5836 35.628 33.9759L35.6106 33.9478Z" fill="#97AAD6"></path><path d="M543.572 259.475C542.662 257.758 541.414 256.3 539.924 255.216C538.475 254.159 536.899 253.339 535.246 252.783C534.334 252.463 533.231 252.133 531.972 251.751C530.96 251.432 529.856 251.133 528.151 250.72C526.384 250.298 524.648 249.719 522.962 248.988C522.138 248.607 521.409 248.005 520.837 247.234C520.369 246.545 520.139 245.688 520.189 244.821C520.189 244.687 520.189 244.563 520.189 244.429C520.225 243.698 520.451 242.996 520.837 242.408C521.522 241.467 522.42 240.754 523.436 240.346C525.109 239.707 526.87 239.421 528.634 239.5C530.001 239.5 531.362 239.701 532.683 240.098C533.559 240.379 534.383 240.833 535.118 241.439C535.585 241.818 535.984 242.294 536.295 242.841V242.841C537.351 244.69 539.779 245.211 541.5 243.959L541.68 243.828C543.235 242.697 543.69 240.577 542.736 238.907L542.432 238.376C541.631 236.96 540.601 235.729 539.395 234.746C537.974 233.576 536.381 232.7 534.69 232.157C534.032 231.947 533.366 231.775 532.693 231.642V226.648C532.693 224.633 531.059 223 529.045 223V223C527.03 223 525.397 224.633 525.397 226.648V231.467C523.936 231.675 522.497 232.048 521.101 232.58C518.823 233.467 516.802 235.039 515.256 237.128L515.155 237.262C513.751 239.279 512.953 241.75 512.875 244.316C512.723 247.142 513.471 249.937 514.982 252.195L515.101 252.37C516.498 254.301 518.314 255.79 520.372 256.691C522.412 257.564 524.51 258.253 526.646 258.753C528.206 259.145 529.2 259.413 530.093 259.702H530.194C531.352 260.032 532.328 260.331 533.176 260.62C534.165 260.95 535.107 261.436 535.976 262.064C536.494 262.453 536.93 262.967 537.252 263.569C537.582 264.31 537.739 265.133 537.708 265.962C537.708 266.024 537.708 266.086 537.708 266.148C537.74 267.149 537.487 268.135 536.988 268.963C536.263 270.106 535.253 270.978 534.088 271.469C532.318 272.235 530.428 272.586 528.534 272.5H528.306C526.252 272.571 524.213 272.082 522.36 271.077C521.444 270.517 520.659 269.718 520.071 268.746V268.746C518.964 266.939 516.528 266.502 514.861 267.81L514.65 267.976C513.14 269.162 512.757 271.291 513.76 272.928L514.079 273.449C515.348 275.528 517.04 277.233 519.013 278.419L519.113 278.471C521.093 279.555 523.215 280.269 525.397 280.585V285.352C525.397 287.367 527.03 289 529.045 289V289C531.059 289 532.693 287.367 532.693 285.352V280.399C534.078 280.125 535.435 279.69 536.742 279.1C539.202 278.039 541.337 276.195 542.888 273.789C544.125 271.712 544.847 269.299 544.978 266.799C545.11 264.3 544.646 261.806 543.636 259.578L543.572 259.475Z" fill="#71BEB5"></path><defs><linearGradient id="paint0_linear" x1="180" y1="416.083" x2="112.873" y2="252.972" gradientUnits="userSpaceOnUse"><stop stop-color="#E9A342"></stop><stop offset="1" stop-color="#F3BF75"></stop></linearGradient><linearGradient id="paint1_linear" x1="183.94" y1="187.657" x2="181.821" y2="163.879" gradientUnits="userSpaceOnUse"><stop stop-color="#E8A341"></stop><stop offset="0.98" stop-color="#F3BF75"></stop></linearGradient><linearGradient id="paint2_linear" x1="492.991" y1="523.055" x2="492.999" y2="523.055" gradientUnits="userSpaceOnUse"><stop stop-color="#514975"></stop><stop offset="0.98" stop-color="#6C6491"></stop></linearGradient><linearGradient id="paint3_linear" x1="415.977" y1="215" x2="415.977" y2="327.24" gradientUnits="userSpaceOnUse"><stop stop-color="#54A79E"></stop><stop offset="1" stop-color="#74C0B8"></stop></linearGradient><linearGradient id="paint4_linear" x1="414.251" y1="473.152" x2="414.251" y2="492.146" gradientUnits="userSpaceOnUse"><stop stop-color="#54A79E"></stop><stop offset="1" stop-color="#74C0B8"></stop></linearGradient><linearGradient id="paint5_linear" x1="414.251" y1="492.146" x2="414.251" y2="511.14" gradientUnits="userSpaceOnUse"><stop stop-color="#54A79E"></stop><stop offset="1" stop-color="#74C0B8"></stop></linearGradient><linearGradient id="paint6_linear" x1="393.005" y1="260.483" x2="441.942" y2="260.483" gradientUnits="userSpaceOnUse"><stop stop-color="#EBF2FC"></stop><stop offset="0.98" stop-color="#DEE5FC"></stop></linearGradient></defs></svg> 